<svg width="7" height="14" viewBox="0 0 7 14" fill="none" xmlns="http://www.w3.org/2000/svg">
<path d="M4.125 11C4.00033 11 3.894 10.956 3.806 10.868C3.72533 10.78 3.685 10.6737 3.685 10.549V4.532L3.861 4.598L1.232 8.03L1.188 7.898H5.302C5.41933 7.898 5.51833 7.93833 5.599 8.019C5.67967 8.09967 5.72 8.19867 5.72 8.316C5.72 8.426 5.67967 8.52133 5.599 8.602C5.51833 8.67533 5.41933 8.712 5.302 8.712H0.583C0.473 8.712 0.370333 8.668 0.275 8.58C0.187 8.492 0.143 8.38933 0.143 8.272C0.143 8.162 0.179667 8.06667 0.253 7.986L3.762 3.476C3.81333 3.41 3.872 3.366 3.938 3.344C4.004 3.31467 4.07 3.3 4.136 3.3C4.26067 3.3 4.36333 3.344 4.444 3.432C4.52467 3.51267 4.565 3.61533 4.565 3.74V10.549C4.565 10.6737 4.521 10.78 4.433 10.868C4.35233 10.956 4.24967 11 4.125 11Z" fill="white"/>
</svg>
